<?xml version="1.0" encoding="UTF-8"?>
<!--Generator: Apple Native CoreSVG 129-->
<!DOCTYPE svg
PUBLIC "-//W3C//DTD SVG 1.1//EN"
       "http://www.w3.org/Graphics/SVG/1.1/DTD/svg11.dtd">
<svg version="1.1" xmlns="http://www.w3.org/2000/svg" xmlns:xlink="http://www.w3.org/1999/xlink" width="3300" height="2200">
 <!--glyph: "uni100708.medium", point size: 100.000000, font version: "Version 16.0d9e1", template writer version: "8"-->
 <g id="Notes">
  <rect height="2200" id="artboard" style="fill:white;opacity:1" width="3300" x="0" y="0"/>
  <line id="" style="fill:none;stroke:black;opacity:1;stroke-width:0.5;" x1="263" x2="3036" y1="292" y2="292"/>
  <text style="stroke:none;fill:black;font-family:-apple-system,&quot;SF Pro Display&quot;,&quot;SF Pro Text&quot;,Helvetica,sans-serif;font-weight:bold;" transform="matrix(1 0 0 1 263 322)">Weight/Scale Variations</text>
  <text style="stroke:none;fill:black;font-family:-apple-system,&quot;SF Pro Display&quot;,&quot;SF Pro Text&quot;,Helvetica,sans-serif;text-anchor:middle;" transform="matrix(1 0 0 1 559.711 322)">Ultralight</text>
  <text style="stroke:none;fill:black;font-family:-apple-system,&quot;SF Pro Display&quot;,&quot;SF Pro Text&quot;,Helvetica,sans-serif;text-anchor:middle;" transform="matrix(1 0 0 1 856.422 322)">Thin</text>
  <text style="stroke:none;fill:black;font-family:-apple-system,&quot;SF Pro Display&quot;,&quot;SF Pro Text&quot;,Helvetica,sans-serif;text-anchor:middle;" transform="matrix(1 0 0 1 1153.13 322)">Light</text>
  <text style="stroke:none;fill:black;font-family:-apple-system,&quot;SF Pro Display&quot;,&quot;SF Pro Text&quot;,Helvetica,sans-serif;text-anchor:middle;" transform="matrix(1 0 0 1 1449.84 322)">Regular</text>
  <text style="stroke:none;fill:black;font-family:-apple-system,&quot;SF Pro Display&quot;,&quot;SF Pro Text&quot;,Helvetica,sans-serif;text-anchor:middle;" transform="matrix(1 0 0 1 1746.56 322)">Medium</text>
  <text style="stroke:none;fill:black;font-family:-apple-system,&quot;SF Pro Display&quot;,&quot;SF Pro Text&quot;,Helvetica,sans-serif;text-anchor:middle;" transform="matrix(1 0 0 1 2043.27 322)">Semibold</text>
  <text style="stroke:none;fill:black;font-family:-apple-system,&quot;SF Pro Display&quot;,&quot;SF Pro Text&quot;,Helvetica,sans-serif;text-anchor:middle;" transform="matrix(1 0 0 1 2339.98 322)">Bold</text>
  <text style="stroke:none;fill:black;font-family:-apple-system,&quot;SF Pro Display&quot;,&quot;SF Pro Text&quot;,Helvetica,sans-serif;text-anchor:middle;" transform="matrix(1 0 0 1 2636.69 322)">Heavy</text>
  <text style="stroke:none;fill:black;font-family:-apple-system,&quot;SF Pro Display&quot;,&quot;SF Pro Text&quot;,Helvetica,sans-serif;text-anchor:middle;" transform="matrix(1 0 0 1 2933.4 322)">Black</text>
  <line id="" style="fill:none;stroke:black;opacity:1;stroke-width:0.5;" x1="263" x2="3036" y1="1903" y2="1903"/>
  <g id="" transform="matrix(1 0 0 1 263 1933)">
   <path d="M 9.24805 0.830078 C 13.5547 0.830078 17.1387 -2.74414 17.1387 -7.05078 C 17.1387 -11.3574 13.5449 -14.9316 9.23828 -14.9316 C 4.94141 -14.9316 1.36719 -11.3574 1.36719 -7.05078 C 1.36719 -2.74414 4.95117 0.830078 9.24805 0.830078 Z M 9.24805 -0.654297 C 5.70312 -0.654297 2.87109 -3.49609 2.87109 -7.05078 C 2.87109 -10.6055 5.69336 -13.4473 9.23828 -13.4473 C 12.793 -13.4473 15.6348 -10.6055 15.6445 -7.05078 C 15.6543 -3.49609 12.8027 -0.654297 9.24805 -0.654297 Z M 9.22852 -3.62305 C 9.69727 -3.62305 9.9707 -3.93555 9.9707 -4.45312 L 9.9707 -6.31836 L 12.002 -6.31836 C 12.5 -6.31836 12.832 -6.57227 12.832 -7.04102 C 12.832 -7.51953 12.5195 -7.7832 12.002 -7.7832 L 9.9707 -7.7832 L 9.9707 -9.81445 C 9.9707 -10.332 9.69727 -10.6543 9.22852 -10.6543 C 8.75977 -10.6543 8.50586 -10.3125 8.50586 -9.81445 L 8.50586 -7.7832 L 6.49414 -7.7832 C 5.97656 -7.7832 5.64453 -7.51953 5.64453 -7.04102 C 5.64453 -6.57227 5.99609 -6.31836 6.49414 -6.31836 L 8.50586 -6.31836 L 8.50586 -4.45312 C 8.50586 -3.95508 8.75977 -3.62305 9.22852 -3.62305 Z"/>
  </g>
  <g id="" transform="matrix(1 0 0 1 281.506 1933)">
   <path d="M 11.709 2.91016 C 17.1582 2.91016 21.6699 -1.61133 21.6699 -7.05078 C 21.6699 -12.5 17.1484 -17.0117 11.6992 -17.0117 C 6.25977 -17.0117 1.74805 -12.5 1.74805 -7.05078 C 1.74805 -1.61133 6.26953 2.91016 11.709 2.91016 Z M 11.709 1.25 C 7.09961 1.25 3.41797 -2.44141 3.41797 -7.05078 C 3.41797 -11.6602 7.08984 -15.3516 11.6992 -15.3516 C 16.3086 -15.3516 20 -11.6602 20.0098 -7.05078 C 20.0195 -2.44141 16.3184 1.25 11.709 1.25 Z M 11.6797 -2.66602 C 12.207 -2.66602 12.5098 -3.01758 12.5098 -3.59375 L 12.5098 -6.23047 L 15.3223 -6.23047 C 15.8691 -6.23047 16.25 -6.51367 16.25 -7.03125 C 16.25 -7.55859 15.8887 -7.86133 15.3223 -7.86133 L 12.5098 -7.86133 L 12.5098 -10.6836 C 12.5098 -11.25 12.207 -11.6113 11.6797 -11.6113 C 11.1621 -11.6113 10.8789 -11.2305 10.8789 -10.6836 L 10.8789 -7.86133 L 8.07617 -7.86133 C 7.50977 -7.86133 7.13867 -7.55859 7.13867 -7.03125 C 7.13867 -6.51367 7.5293 -6.23047 8.07617 -6.23047 L 10.8789 -6.23047 L 10.8789 -3.59375 C 10.8789 -3.03711 11.1621 -2.66602 11.6797 -2.66602 Z"/>
  </g>
  <g id="" transform="matrix(1 0 0 1 304.924 1933)">
   <path d="M 14.9707 5.66406 C 21.9336 5.66406 27.6953 -0.0976562 27.6953 -7.05078 C 27.6953 -14.0137 21.9238 -19.7754 14.9609 -19.7754 C 8.00781 -19.7754 2.25586 -14.0137 2.25586 -7.05078 C 2.25586 -0.0976562 8.01758 5.66406 14.9707 5.66406 Z M 14.9707 3.84766 C 8.93555 3.84766 4.08203 -1.01562 4.08203 -7.05078 C 4.08203 -13.0957 8.92578 -17.9492 14.9609 -17.9492 C 21.0059 -17.9492 25.8594 -13.0957 25.8691 -7.05078 C 25.8789 -1.01562 21.0156 3.84766 14.9707 3.84766 Z M 14.9414 -1.38672 C 15.5176 -1.38672 15.8594 -1.77734 15.8594 -2.38281 L 15.8594 -6.13281 L 19.7754 -6.13281 C 20.3711 -6.13281 20.7812 -6.46484 20.7812 -7.02148 C 20.7812 -7.59766 20.3906 -7.93945 19.7754 -7.93945 L 15.8594 -7.93945 L 15.8594 -11.8652 C 15.8594 -12.4805 15.5176 -12.8711 14.9414 -12.8711 C 14.375 -12.8711 14.0527 -12.4609 14.0527 -11.8652 L 14.0527 -7.93945 L 10.1465 -7.93945 C 9.53125 -7.93945 9.13086 -7.59766 9.13086 -7.02148 C 9.13086 -6.46484 9.55078 -6.13281 10.1465 -6.13281 L 14.0527 -6.13281 L 14.0527 -2.38281 C 14.0527 -1.79688 14.375 -1.38672 14.9414 -1.38672 Z"/>
  </g>
  <text style="stroke:none;fill:black;font-family:-apple-system,&quot;SF Pro Display&quot;,&quot;SF Pro Text&quot;,Helvetica,sans-serif;font-weight:bold;" transform="matrix(1 0 0 1 263 1953)">Design Variations</text>
  <text style="stroke:none;fill:black;font-family:-apple-system,&quot;SF Pro Display&quot;,&quot;SF Pro Text&quot;,Helvetica,sans-serif;" transform="matrix(1 0 0 1 263 1971)">Symbols are supported in up to nine weights and three scales.</text>
  <text style="stroke:none;fill:black;font-family:-apple-system,&quot;SF Pro Display&quot;,&quot;SF Pro Text&quot;,Helvetica,sans-serif;" transform="matrix(1 0 0 1 263 1989)">For optimal layout with text and other symbols, vertically align</text>
  <text style="stroke:none;fill:black;font-family:-apple-system,&quot;SF Pro Display&quot;,&quot;SF Pro Text&quot;,Helvetica,sans-serif;" transform="matrix(1 0 0 1 263 2007)">symbols with the adjacent text.</text>
  <line id="" style="fill:none;stroke:#00AEEF;stroke-width:0.5;opacity:1.0;" x1="776" x2="776" y1="1919" y2="1933"/>
  <g id="" transform="matrix(1 0 0 1 776 1933)">
   <path d="M 3.31055 0.126953 C 3.82812 0.126953 4.08203 -0.0683594 4.26758 -0.605469 L 5.52734 -4.0625 L 11.2891 -4.0625 L 12.5488 -0.605469 C 12.7344 -0.0683594 12.9883 0.126953 13.4961 0.126953 C 14.0137 0.126953 14.3457 -0.185547 14.3457 -0.673828 C 14.3457 -0.839844 14.3164 -0.986328 14.2383 -1.20117 L 9.6582 -13.3887 C 9.43359 -13.9941 9.0332 -14.2871 8.4082 -14.2871 C 7.80273 -14.2871 7.39258 -13.9941 7.17773 -13.3984 L 2.59766 -1.19141 C 2.51953 -0.976562 2.49023 -0.830078 2.49023 -0.664062 C 2.49023 -0.175781 2.80273 0.126953 3.31055 0.126953 Z M 6.00586 -5.53711 L 8.37891 -12.1094 L 8.42773 -12.1094 L 10.8008 -5.53711 Z"/>
  </g>
  <line id="" style="fill:none;stroke:#00AEEF;stroke-width:0.5;opacity:1.0;" x1="792.836" x2="792.836" y1="1919" y2="1933"/>
  <text style="stroke:none;fill:black;font-family:-apple-system,&quot;SF Pro Display&quot;,&quot;SF Pro Text&quot;,Helvetica,sans-serif;font-weight:bold;" transform="matrix(1 0 0 1 776 1953)">Margins</text>
  <text style="stroke:none;fill:black;font-family:-apple-system,&quot;SF Pro Display&quot;,&quot;SF Pro Text&quot;,Helvetica,sans-serif;" transform="matrix(1 0 0 1 776 1971)">Leading and trailing margins on the left and right side of each symbol</text>
  <text style="stroke:none;fill:black;font-family:-apple-system,&quot;SF Pro Display&quot;,&quot;SF Pro Text&quot;,Helvetica,sans-serif;" transform="matrix(1 0 0 1 776 1989)">can be adjusted by modifying the x-location of the margin guidelines.</text>
  <text style="stroke:none;fill:black;font-family:-apple-system,&quot;SF Pro Display&quot;,&quot;SF Pro Text&quot;,Helvetica,sans-serif;" transform="matrix(1 0 0 1 776 2007)">Modifications are automatically applied proportionally to all</text>
  <text style="stroke:none;fill:black;font-family:-apple-system,&quot;SF Pro Display&quot;,&quot;SF Pro Text&quot;,Helvetica,sans-serif;" transform="matrix(1 0 0 1 776 2025)">scales and weights.</text>
  <g id="" transform="matrix(1 0 0 1 1289 1933)">
   <path d="M 2.8418 1.86523 L 4.54102 3.57422 C 5.40039 4.44336 6.38672 4.38477 7.31445 3.35938 L 17.4902 -7.85156 C 17.7539 -7.76367 18.0273 -7.7832 18.3398 -7.8418 L 19.4043 -8.03711 L 20.0684 -7.36328 L 20.0293 -6.80664 C 19.9902 -6.30859 20.1172 -5.92773 20.6055 -5.44922 L 21.3672 -4.70703 C 21.8457 -4.22852 22.4609 -4.19922 22.9297 -4.66797 L 25.8398 -7.58789 C 26.3086 -8.05664 26.2891 -8.65234 25.8105 -9.13086 L 25.0391 -9.89258 C 24.5605 -10.3711 24.1895 -10.5273 23.7109 -10.4883 L 23.1348 -10.4395 L 22.4902 -11.0742 L 22.7344 -12.1973 C 22.8613 -12.7637 22.7051 -13.2031 22.1191 -13.7891 L 19.9219 -15.9766 C 16.582 -19.2969 12.1484 -19.2188 9.25781 -16.3281 C 8.83789 -15.918 8.80859 -15.3418 9.04297 -14.9512 C 9.27734 -14.5898 9.73633 -14.3555 10.3809 -14.5215 C 11.8457 -14.8633 13.3691 -14.9219 14.7949 -13.9844 L 14.209 -12.5293 C 14.0137 -12.0508 13.9844 -11.6504 14.1113 -11.2891 L 3.04688 -0.898438 C 2.06055 0.0195312 1.98242 0.996094 2.8418 1.86523 Z M 10.752 -15.957 C 13.1836 -17.7344 16.4746 -17.4316 18.7012 -15.2051 L 21.1328 -12.793 C 21.3672 -12.5586 21.4062 -12.373 21.3379 -12.0312 L 21.0156 -10.5469 L 22.5195 -9.0625 L 23.5059 -9.12109 C 23.7598 -9.13086 23.8379 -9.11133 24.0332 -8.91602 L 24.6094 -8.33984 L 22.168 -5.89844 L 21.5918 -6.47461 C 21.3965 -6.66992 21.3672 -6.74805 21.377 -7.01172 L 21.4453 -7.98828 L 19.9512 -9.47266 L 18.4277 -9.21875 C 18.1055 -9.15039 17.959 -9.17969 17.7148 -9.41406 L 15.7129 -11.416 C 15.459 -11.6504 15.4297 -11.8164 15.5859 -12.1875 L 16.4648 -14.2773 C 14.9023 -15.7324 12.8711 -16.3574 10.8398 -15.7617 C 10.6836 -15.7227 10.625 -15.8496 10.752 -15.957 Z M 5.27344 2.30469 L 4.10156 1.14258 C 3.63281 0.683594 3.74023 0.341797 4.14062 -0.0195312 L 14.9512 -10.1953 L 16.416 -8.71094 L 6.42578 2.27539 C 6.07422 2.67578 5.74219 2.77344 5.27344 2.30469 Z"/>
  </g>
  <text style="stroke:none;fill:black;font-family:-apple-system,&quot;SF Pro Display&quot;,&quot;SF Pro Text&quot;,Helvetica,sans-serif;font-weight:bold;" transform="matrix(1 0 0 1 1289 1953)">Exporting</text>
  <text style="stroke:none;fill:black;font-family:-apple-system,&quot;SF Pro Display&quot;,&quot;SF Pro Text&quot;,Helvetica,sans-serif;" transform="matrix(1 0 0 1 1289 1971)">Symbols should be outlined when exporting to ensure the</text>
  <text style="stroke:none;fill:black;font-family:-apple-system,&quot;SF Pro Display&quot;,&quot;SF Pro Text&quot;,Helvetica,sans-serif;" transform="matrix(1 0 0 1 1289 1989)">design is preserved when submitting to Xcode.</text>
  <text id="template-version" style="stroke:none;fill:black;font-family:-apple-system,&quot;SF Pro Display&quot;,&quot;SF Pro Text&quot;,Helvetica,sans-serif;text-anchor:end;" transform="matrix(1 0 0 1 3036 1933)">Template v.2.0</text>
  <text style="stroke:none;fill:black;font-family:-apple-system,&quot;SF Pro Display&quot;,&quot;SF Pro Text&quot;,Helvetica,sans-serif;text-anchor:end;" transform="matrix(1 0 0 1 3036 1951)">Requires Xcode 12 or greater</text>
  <text style="stroke:none;fill:black;font-family:-apple-system,&quot;SF Pro Display&quot;,&quot;SF Pro Text&quot;,Helvetica,sans-serif;text-anchor:end;" transform="matrix(1 0 0 1 3036 1969)">Generated from mappin.circle.fill</text>
  <text style="stroke:none;fill:black;font-family:-apple-system,&quot;SF Pro Display&quot;,&quot;SF Pro Text&quot;,Helvetica,sans-serif;text-anchor:end;" transform="matrix(1 0 0 1 3036 1987)">Typeset at 100 points</text>
  <text style="stroke:none;fill:black;font-family:-apple-system,&quot;SF Pro Display&quot;,&quot;SF Pro Text&quot;,Helvetica,sans-serif;" transform="matrix(1 0 0 1 263 726)">Small</text>
  <text style="stroke:none;fill:black;font-family:-apple-system,&quot;SF Pro Display&quot;,&quot;SF Pro Text&quot;,Helvetica,sans-serif;" transform="matrix(1 0 0 1 263 1156)">Medium</text>
  <text style="stroke:none;fill:black;font-family:-apple-system,&quot;SF Pro Display&quot;,&quot;SF Pro Text&quot;,Helvetica,sans-serif;" transform="matrix(1 0 0 1 263 1586)">Large</text>
 </g>
 <g id="Guides">
  <g id="H-reference" style="fill:#27AAE1;stroke:none;" transform="matrix(1 0 0 1 339 696)">
   <path d="M 0.976562 0 L 3.66211 0 L 12.9883 -24.4629 L 45.7031 -24.4629 L 55.0781 0 L 57.7148 0 L 30.6152 -70.459 L 28.125 -70.459 Z M 29.2969 -67.1387 L 29.3945 -67.1387 L 44.873 -26.709 L 13.8672 -26.709 Z"/>
  </g>
  <line id="Baseline-S" style="fill:none;stroke:#27AAE1;opacity:1;stroke-width:0.5;" x1="263" x2="3036" y1="696" y2="696"/>
  <line id="Capline-S" style="fill:none;stroke:#27AAE1;opacity:1;stroke-width:0.5;" x1="263" x2="3036" y1="625.541" y2="625.541"/>
  <g id="H-reference" style="fill:#27AAE1;stroke:none;" transform="matrix(1 0 0 1 339 1126)">
   <path d="M 0.976562 0 L 3.66211 0 L 12.9883 -24.4629 L 45.7031 -24.4629 L 55.0781 0 L 57.7148 0 L 30.6152 -70.459 L 28.125 -70.459 Z M 29.2969 -67.1387 L 29.3945 -67.1387 L 44.873 -26.709 L 13.8672 -26.709 Z"/>
  </g>
  <line id="Baseline-M" style="fill:none;stroke:#27AAE1;opacity:1;stroke-width:0.5;" x1="263" x2="3036" y1="1126" y2="1126"/>
  <line id="Capline-M" style="fill:none;stroke:#27AAE1;opacity:1;stroke-width:0.5;" x1="263" x2="3036" y1="1055.54" y2="1055.54"/>
  <g id="H-reference" style="fill:#27AAE1;stroke:none;" transform="matrix(1 0 0 1 339 1556)">
   <path d="M 0.976562 0 L 3.66211 0 L 12.9883 -24.4629 L 45.7031 -24.4629 L 55.0781 0 L 57.7148 0 L 30.6152 -70.459 L 28.125 -70.459 Z M 29.2969 -67.1387 L 29.3945 -67.1387 L 44.873 -26.709 L 13.8672 -26.709 Z"/>
  </g>
  <line id="Baseline-L" style="fill:none;stroke:#27AAE1;opacity:1;stroke-width:0.5;" x1="263" x2="3036" y1="1556" y2="1556"/>
  <line id="Capline-L" style="fill:none;stroke:#27AAE1;opacity:1;stroke-width:0.5;" x1="263" x2="3036" y1="1485.54" y2="1485.54"/>
  <line id="left-margin" style="fill:none;stroke:#00AEEF;stroke-width:0.5;opacity:1.0;" x1="1391.3" x2="1391.3" y1="1030.79" y2="1150.12"/>
  <line id="right-margin" style="fill:none;stroke:#00AEEF;stroke-width:0.5;opacity:1.0;" x1="1508.39" x2="1508.39" y1="1030.79" y2="1150.12"/>
 </g>
 <g id="Symbols">
  <g id="Black-L" transform="matrix(1 0 0 1 2854.05 1556)">
   <path d="M 79.3457 32.9102 C 116.748 32.9102 147.412 2.29492 147.412 -35.1074 C 147.412 -72.5586 116.748 -103.174 79.2969 -103.174 C 41.8945 -103.174 11.2793 -72.5586 11.2793 -35.1074 C 11.2793 2.29492 41.9434 32.9102 79.3457 32.9102 Z M 61.3281 -55.957 C 61.3281 -65.7715 69.3359 -73.877 79.2969 -73.9258 C 89.209 -73.9746 97.3145 -65.9668 97.3145 -55.957 C 97.3145 -48.4863 92.8223 -42.041 86.377 -39.3066 L 86.377 -10.6934 C 86.377 -3.80859 83.0078 5.22461 79.2969 5.22461 C 75.5371 5.22461 72.168 -3.90625 72.168 -10.6934 L 72.168 -39.3555 C 65.7715 -42.1387 61.3281 -48.4863 61.3281 -55.957 Z M 68.6035 -60.3516 C 68.6035 -56.9336 71.4844 -54.0527 74.8535 -54.0527 C 78.2715 -54.0527 81.2012 -56.9336 81.2012 -60.3516 C 81.2012 -63.8184 78.2715 -66.6992 74.8535 -66.6992 C 71.4844 -66.6992 68.6035 -63.8184 68.6035 -60.3516 Z" fill="#808080"/>
  </g>
  <g id="Heavy-L" transform="matrix(1 0 0 1 2558.39 1556)">
   <path d="M 78.2715 31.8848 C 115.088 31.8848 145.312 1.66016 145.312 -35.1562 C 145.312 -71.9238 115.039 -102.148 78.2715 -102.148 C 41.4551 -102.148 11.2793 -71.9238 11.2793 -35.1562 C 11.2793 1.66016 41.5039 31.8848 78.2715 31.8848 Z M 61.1816 -56.8848 C 61.1816 -66.2598 68.7988 -73.9258 78.2715 -73.9258 C 87.6465 -73.9746 95.3125 -66.4062 95.3125 -56.8848 C 95.3125 -49.6582 90.8691 -43.457 84.5703 -41.0156 L 84.5703 -10.8398 C 84.5703 -3.4668 81.6406 5.12695 78.2715 5.12695 C 74.7559 5.12695 71.875 -3.56445 71.875 -10.8398 L 71.875 -41.0645 C 65.625 -43.5547 61.1816 -49.707 61.1816 -56.8848 Z M 68.1641 -61.1328 C 68.1641 -57.959 70.8496 -55.2246 73.9746 -55.2246 C 77.1973 -55.2246 79.8828 -57.959 79.8828 -61.1328 C 79.8828 -64.3555 77.1973 -67.041 73.9746 -67.041 C 70.8496 -67.041 68.1152 -64.3555 68.1641 -61.1328 Z" fill="#808080"/>
  </g>
  <g id="Bold-L" transform="matrix(1 0 0 1 2262.88 1556)">
   <path d="M 77.0996 30.6641 C 113.232 30.6641 142.92 0.927734 142.92 -35.1562 C 142.92 -71.2891 113.184 -100.977 77.0508 -100.977 C 40.9668 -100.977 11.2793 -71.2891 11.2793 -35.1562 C 11.2793 0.927734 41.0156 30.6641 77.0996 30.6641 Z M 60.9863 -57.959 C 60.9863 -66.748 68.2129 -73.9746 77.0508 -73.9746 C 85.8887 -74.0234 93.1152 -66.8457 93.1152 -57.959 C 93.1152 -50.9766 88.6719 -45.0684 82.5195 -42.9199 L 82.5195 -10.9375 C 82.5195 -3.07617 80.1758 5.0293 77.0508 5.0293 C 73.9258 5.0293 71.5332 -3.17383 71.5332 -10.9375 L 71.5332 -42.9688 C 65.4297 -45.166 60.9863 -51.0254 60.9863 -57.959 Z M 67.627 -62.0117 C 67.627 -59.082 70.1172 -56.543 72.998 -56.543 C 75.9766 -56.543 78.418 -59.082 78.4668 -62.0117 C 78.4668 -64.9414 75.9766 -67.4316 72.998 -67.4316 C 70.1172 -67.4316 67.627 -64.9414 67.627 -62.0117 Z" fill="#808080"/>
  </g>
  <g id="Semibold-L" transform="matrix(1 0 0 1 1966.97 1556)">
   <path d="M 76.2695 29.834 C 111.914 29.834 141.309 0.439453 141.309 -35.1562 C 141.309 -70.8008 111.865 -100.195 76.2695 -100.195 C 40.625 -100.195 11.2793 -70.8008 11.2793 -35.1562 C 11.2793 0.439453 40.6738 29.834 76.2695 29.834 Z M 60.8887 -58.6914 C 60.8887 -67.1387 67.7734 -73.9746 76.2207 -74.0234 C 84.668 -74.0234 91.6016 -67.1875 91.6016 -58.6914 C 91.6016 -51.9043 87.207 -46.1914 81.1035 -44.2383 L 81.1035 -11.0352 C 81.1035 -2.7832 79.1016 4.98047 76.2207 4.98047 C 73.3398 4.98047 71.3379 -2.92969 71.3379 -11.0352 L 71.3379 -44.2871 C 65.2832 -46.2402 60.8887 -51.9531 60.8887 -58.6914 Z M 67.2852 -62.5977 C 67.2852 -59.8145 69.6289 -57.4707 72.3633 -57.4707 C 75.1465 -57.4707 77.4414 -59.8145 77.4414 -62.5977 C 77.4414 -65.3809 75.1465 -67.7246 72.3633 -67.7246 C 69.6289 -67.7246 67.2363 -65.3809 67.2852 -62.5977 Z" fill="#808080"/>
  </g>
  <g id="Medium-L" transform="matrix(1 0 0 1 1670.87 1556)">
   <path d="M 75.6836 29.1992 C 110.938 29.1992 140.088 0.0976562 140.088 -35.1562 C 140.088 -70.459 110.889 -99.5605 75.6348 -99.5605 C 40.3809 -99.5605 11.2793 -70.459 11.2793 -35.1562 C 11.2793 0.0976562 40.3809 29.1992 75.6836 29.1992 Z M 60.8398 -59.2773 C 60.8398 -67.3828 67.4805 -74.0234 75.6348 -74.0234 C 83.7891 -74.0234 90.4297 -67.4316 90.4297 -59.2773 C 90.4297 -52.5879 86.0352 -47.0215 80.0293 -45.2637 L 80.0293 -11.1328 C 80.0293 -2.58789 78.3203 4.93164 75.6348 4.93164 C 72.9004 4.93164 71.1426 -2.68555 71.1426 -11.1328 L 71.1426 -45.2637 C 65.1855 -47.1191 60.8398 -52.6367 60.8398 -59.2773 Z M 66.9922 -63.0371 C 67.041 -60.4004 69.2871 -58.1543 71.8262 -58.1543 C 74.5117 -58.1543 76.6602 -60.4004 76.709 -63.0371 C 76.709 -65.6738 74.5117 -67.9199 71.8262 -67.9199 C 69.2871 -67.9199 66.9922 -65.6738 66.9922 -63.0371 Z" fill="#808080"/>
  </g>
  <g id="Regular-L" transform="matrix(1 0 0 1 1374.97 1556)">
   <path d="M 74.8535 28.418 C 109.668 28.418 138.477 -0.390625 138.477 -35.2051 C 138.477 -69.9707 109.619 -98.7793 74.8047 -98.7793 C 40.0391 -98.7793 11.2793 -69.9707 11.2793 -35.2051 C 11.2793 -0.390625 40.0879 28.418 74.8535 28.418 Z M 60.6934 -60.0098 C 60.6934 -67.7734 67.041 -74.0723 74.8047 -74.0723 C 82.5684 -74.0723 88.916 -67.7734 88.916 -60.0098 C 88.916 -53.5156 84.5703 -48.1445 78.6621 -46.5332 L 78.6621 -11.2305 C 78.6621 -2.29492 77.2949 4.83398 74.8047 4.83398 C 72.3145 4.83398 70.8984 -2.44141 70.8984 -11.2305 L 70.8984 -46.5332 C 65.0879 -48.1934 60.6934 -53.5645 60.6934 -60.0098 Z M 66.6504 -63.623 C 66.6504 -61.1816 68.7988 -59.082 71.1914 -59.082 C 73.6816 -59.082 75.6836 -61.1816 75.6836 -63.623 C 75.7324 -66.0645 73.6816 -68.2129 71.1914 -68.2129 C 68.7988 -68.2129 66.6016 -66.0645 66.6504 -63.623 Z" fill="#808080"/>
  </g>
  <g id="Light-L" transform="matrix(1 0 0 1 1079.18 1556)">
   <path d="M 73.9258 27.4902 C 108.301 27.4902 136.621 -0.830078 136.621 -35.2051 C 136.621 -69.5312 108.252 -97.8516 73.9258 -97.8516 C 39.5508 -97.8516 11.2793 -69.5312 11.2793 -35.2051 C 11.2793 -0.830078 39.5996 27.4902 73.9258 27.4902 Z M 60.8398 -60.6445 C 60.8398 -67.8223 66.6992 -73.6816 73.9258 -73.6816 C 81.1035 -73.6816 86.9629 -67.8223 86.9629 -60.6445 C 86.9629 -54.4434 82.666 -49.3652 76.9043 -48.0469 L 76.9043 -8.88672 C 76.9043 -1.07422 75.7324 4.39453 73.9258 4.39453 C 72.0703 4.39453 70.8984 -1.17188 70.8984 -8.88672 L 70.8984 -48.0469 C 65.1367 -49.3652 60.8398 -54.4922 60.8398 -60.6445 Z M 66.2598 -64.0137 C 66.3086 -61.7188 68.2617 -59.7168 70.5566 -59.7168 C 72.9004 -59.7168 74.7559 -61.7188 74.8047 -64.0137 C 74.8535 -66.3574 72.9004 -68.3594 70.5566 -68.3594 C 68.2617 -68.3594 66.2109 -66.3574 66.2598 -64.0137 Z" fill="#808080"/>
  </g>
  <g id="Thin-L" transform="matrix(1 0 0 1 783.693 1556)">
   <path d="M 72.7051 26.2695 C 106.494 26.2695 134.18 -1.41602 134.18 -35.2051 C 134.18 -68.9453 106.494 -96.6309 72.7051 -96.6309 C 38.9648 -96.6309 11.2793 -68.9453 11.2793 -35.2051 C 11.2793 -1.41602 38.9648 26.2695 72.7051 26.2695 Z M 60.9863 -61.5234 C 60.9863 -67.9688 66.2598 -73.1934 72.7051 -73.1934 C 79.1992 -73.1934 84.4238 -67.9688 84.4238 -61.5234 C 84.4238 -55.6641 80.127 -50.9277 74.5605 -50.0488 L 74.5605 -5.85938 C 74.5605 0.585938 73.6816 3.80859 72.7051 3.80859 C 71.7773 3.80859 70.8496 0.488281 70.8496 -5.85938 L 70.8496 -50.0488 C 65.2832 -50.9277 60.9863 -55.7129 60.9863 -61.5234 Z M 65.7227 -64.5508 C 65.7715 -62.4023 67.5781 -60.5957 69.7266 -60.5957 C 71.875 -60.5957 73.5352 -62.4023 73.584 -64.5508 C 73.6816 -66.748 71.875 -68.6035 69.7266 -68.6035 C 67.5781 -68.6035 65.625 -66.748 65.7227 -64.5508 Z" fill="#808080"/>
  </g>
  <g id="Ultralight-L" transform="matrix(1 0 0 1 487.616 1556)">
   <path d="M 72.1191 25.6348 C 105.566 25.6348 132.91 -1.70898 132.91 -35.2051 C 132.91 -68.6523 105.566 -95.9961 72.1191 -95.9961 C 38.623 -95.9961 11.2793 -68.6523 11.2793 -35.2051 C 11.2793 -1.70898 38.623 25.6348 72.1191 25.6348 Z M 61.084 -61.9629 C 61.084 -68.0176 66.0156 -72.9492 72.1191 -72.9492 C 78.1738 -72.9492 83.1055 -68.0176 83.1055 -61.9629 C 83.1055 -56.3477 78.8574 -51.7578 73.3398 -51.0254 L 73.3398 -4.29688 C 73.3398 1.41602 72.6074 3.51562 72.1191 3.51562 C 71.582 3.51562 70.8496 1.31836 70.8496 -4.29688 L 70.8496 -51.0254 C 65.332 -51.7578 61.084 -56.2988 61.084 -61.9629 Z M 65.4297 -64.8438 C 65.5273 -62.793 67.2363 -61.084 69.2871 -61.084 C 71.3379 -61.084 72.9004 -62.793 72.998 -64.8438 C 73.0469 -66.9922 71.3379 -68.7012 69.2871 -68.7012 C 67.2363 -68.7012 65.332 -66.9922 65.4297 -64.8438 Z" fill="#808080"/>
  </g>
  <g id="Black-M" transform="matrix(1 0 0 1 2870.97 1126)">
   <path d="M 62.4023 18.5547 C 91.9922 18.5547 116.113 -5.56641 116.113 -35.1562 C 116.113 -64.7461 91.9922 -88.8184 62.4023 -88.8184 C 32.8125 -88.8184 8.74023 -64.7461 8.74023 -35.1562 C 8.74023 -5.56641 32.8125 18.5547 62.4023 18.5547 Z M 47.8027 -50.3418 C 47.8027 -58.3496 54.2969 -64.8926 62.4023 -64.9902 C 70.5078 -65.0391 77.0508 -58.5449 77.0508 -50.3418 C 77.0508 -44.3848 73.584 -39.209 68.457 -36.8652 L 68.457 -14.8438 C 68.457 -10.6934 65.2832 -4.00391 62.4023 -4.00391 C 59.4238 -4.00391 56.3477 -10.7422 56.3477 -14.8438 L 56.3477 -36.9629 C 51.2695 -39.2578 47.8027 -44.3848 47.8027 -50.3418 Z M 53.5645 -53.9062 C 53.5645 -51.0254 55.957 -48.5352 58.8379 -48.5352 C 61.7188 -48.5352 64.209 -51.0254 64.209 -53.9062 C 64.209 -56.8359 61.7188 -59.2285 58.8379 -59.2285 C 55.957 -59.2285 53.5645 -56.8359 53.5645 -53.9062 Z" fill="#808080"/>
  </g>
  <g id="Heavy-M" transform="matrix(1 0 0 1 2575.19 1126)">
   <path d="M 61.5234 17.627 C 90.5273 17.627 114.258 -6.10352 114.258 -35.1562 C 114.258 -64.1602 90.5273 -87.8906 61.4746 -87.8906 C 32.4707 -87.8906 8.74023 -64.1602 8.74023 -35.1562 C 8.74023 -6.10352 32.4707 17.627 61.5234 17.627 Z M 47.6074 -51.2207 C 47.6074 -58.8379 53.8086 -65.0391 61.4746 -65.0879 C 69.1406 -65.1367 75.3906 -58.9844 75.3906 -51.2207 C 75.3906 -45.459 71.9238 -40.4785 66.9434 -38.3789 L 66.9434 -15.5762 C 66.9434 -10.6445 64.209 -3.95508 61.4746 -3.95508 C 58.6426 -3.95508 56.0059 -10.6934 56.0059 -15.5762 L 56.0059 -38.4277 C 51.0742 -40.5273 47.6074 -45.459 47.6074 -51.2207 Z M 53.1738 -54.6387 C 53.1738 -51.9531 55.4199 -49.707 58.0566 -49.707 C 60.7422 -49.707 62.9883 -51.9531 62.9883 -54.6387 C 62.9883 -57.3242 60.7422 -59.5703 58.0566 -59.5703 C 55.4199 -59.5703 53.1738 -57.3242 53.1738 -54.6387 Z" fill="#808080"/>
  </g>
  <g id="Bold-M" transform="matrix(1 0 0 1 2279.5 1126)">
   <path d="M 60.498 16.5527 C 88.8672 16.5527 112.207 -6.73828 112.207 -35.1562 C 112.207 -63.5742 88.8672 -86.9141 60.4492 -86.9141 C 32.0312 -86.9141 8.74023 -63.5742 8.74023 -35.1562 C 8.74023 -6.73828 32.0801 16.5527 60.498 16.5527 Z M 47.3633 -52.1973 C 47.3633 -59.375 53.2227 -65.2344 60.4492 -65.2344 C 67.6758 -65.2832 73.5352 -59.4727 73.5352 -52.1973 C 73.5352 -46.6309 70.1172 -41.8945 65.2344 -40.0391 L 65.2344 -16.3574 C 65.2344 -10.5469 63.0371 -3.95508 60.4492 -3.95508 C 57.8125 -3.95508 55.6641 -10.6445 55.6641 -16.3574 L 55.6641 -40.0391 C 50.8301 -41.9434 47.3633 -46.6309 47.3633 -52.1973 Z M 52.7344 -55.4199 C 52.7344 -53.0273 54.7852 -50.9277 57.1777 -50.9277 C 59.6191 -50.9277 61.6699 -53.0273 61.6699 -55.4199 C 61.7188 -57.9102 59.6191 -59.9609 57.1777 -59.9609 C 54.7852 -59.9609 52.7344 -57.9102 52.7344 -55.4199 Z" fill="#808080"/>
  </g>
  <g id="Semibold-M" transform="matrix(1 0 0 1 1983.5 1126)">
   <path d="M 59.7656 15.8691 C 87.7441 15.8691 110.791 -7.22656 110.791 -35.1562 C 110.791 -63.1348 87.6953 -86.2305 59.7656 -86.2305 C 31.7871 -86.2305 8.74023 -63.1348 8.74023 -35.1562 C 8.74023 -7.22656 31.7871 15.8691 59.7656 15.8691 Z M 47.2168 -52.8809 C 47.2168 -59.7168 52.832 -65.332 59.7656 -65.332 C 66.6504 -65.3809 72.2656 -59.8145 72.2656 -52.8809 C 72.2656 -47.4121 68.8477 -42.8711 64.0137 -41.1621 L 64.0137 -16.9434 C 64.0137 -10.498 62.2559 -3.95508 59.7656 -3.95508 C 57.2266 -3.95508 55.4199 -10.5957 55.4199 -16.9434 L 55.4199 -41.1621 C 50.6836 -42.9199 47.2168 -47.4609 47.2168 -52.8809 Z M 52.4414 -56.0059 C 52.4414 -53.7598 54.3457 -51.8066 56.5918 -51.8066 C 58.8867 -51.8066 60.791 -53.7598 60.791 -56.0059 C 60.791 -58.3008 58.8867 -60.2051 56.5918 -60.2051 C 54.3457 -60.2051 52.4414 -58.3008 52.4414 -56.0059 Z" fill="#808080"/>
  </g>
  <g id="Medium-M" transform="matrix(1 0 0 1 1687.3 1126)">
   <path d="M 59.2285 15.332 C 86.9141 15.332 109.766 -7.51953 109.766 -35.2051 C 109.766 -62.8418 86.8652 -85.6934 59.1797 -85.6934 C 31.543 -85.6934 8.74023 -62.8418 8.74023 -35.2051 C 8.74023 -7.51953 31.5918 15.332 59.2285 15.332 Z M 47.1191 -53.3691 C 47.1191 -60.0098 52.5391 -65.4297 59.2285 -65.4297 C 65.8691 -65.4297 71.2891 -60.0586 71.2891 -53.3691 C 71.2891 -48.0469 67.8711 -43.6035 63.1348 -42.041 L 63.1348 -17.3828 C 63.1348 -10.4492 61.6211 -3.95508 59.2285 -3.95508 C 56.7871 -3.95508 55.2246 -10.5957 55.2246 -17.3828 L 55.2246 -42.041 C 50.5371 -43.6523 47.1191 -48.0957 47.1191 -53.3691 Z M 52.1973 -56.4453 C 52.1973 -54.2969 54.0527 -52.4414 56.1035 -52.4414 C 58.3008 -52.4414 60.0586 -54.2969 60.1074 -56.4453 C 60.1074 -58.5938 58.3008 -60.4004 56.1035 -60.4004 C 54.0527 -60.4004 52.1973 -58.5938 52.1973 -56.4453 Z" fill="#808080"/>
  </g>
  <g id="Regular-M" transform="matrix(1 0 0 1 1391.3 1126)">
   <path d="M 58.5449 14.5996 C 85.791 14.5996 108.35 -7.95898 108.35 -35.2051 C 108.35 -62.4023 85.7422 -85.0098 58.4961 -85.0098 C 31.2988 -85.0098 8.74023 -62.4023 8.74023 -35.2051 C 8.74023 -7.95898 31.3477 14.5996 58.5449 14.5996 Z M 46.9727 -54.0527 C 46.9727 -60.4004 52.1973 -65.5273 58.4961 -65.5273 C 64.8438 -65.5273 70.0195 -60.4004 70.0195 -54.0527 C 70.0195 -48.8281 66.6016 -44.5312 61.9629 -43.1641 L 61.9629 -17.9199 C 61.9629 -10.4004 60.8398 -3.90625 58.4961 -3.90625 C 56.2012 -3.90625 54.9805 -10.5469 54.9805 -17.9199 L 54.9805 -43.1641 C 50.3906 -44.5801 46.9727 -48.877 46.9727 -54.0527 Z M 51.9043 -56.9824 C 51.9043 -55.0293 53.6133 -53.3203 55.5176 -53.3203 C 57.5195 -53.3203 59.1797 -55.0293 59.1797 -56.9824 C 59.1797 -58.9844 57.5195 -60.6934 55.5176 -60.6934 C 53.6133 -60.6934 51.8555 -58.9844 51.9043 -56.9824 Z" fill="#808080"/>
  </g>
  <g id="Light-M" transform="matrix(1 0 0 1 1095.42 1126)">
   <path d="M 57.7148 13.7695 C 84.5215 13.7695 106.689 -8.34961 106.689 -35.2051 C 106.689 -62.0117 84.5215 -84.1797 57.666 -84.1797 C 30.8594 -84.1797 8.74023 -62.0117 8.74023 -35.2051 C 8.74023 -8.34961 30.9082 13.7695 57.7148 13.7695 Z M 47.1191 -54.6387 C 47.1191 -60.4492 51.8555 -65.1855 57.666 -65.1855 C 63.5254 -65.1855 68.2617 -60.4492 68.2617 -54.6387 C 68.2617 -49.707 64.8926 -45.6543 60.4004 -44.4824 L 60.4004 -15.8691 C 60.4004 -9.32617 59.4238 -4.3457 57.666 -4.3457 C 55.957 -4.3457 54.9805 -9.42383 54.9805 -15.8691 L 54.9805 -44.4824 C 50.4395 -45.6543 47.1191 -49.707 47.1191 -54.6387 Z M 51.5137 -57.373 C 51.5625 -55.5176 53.125 -53.9062 54.9805 -53.9062 C 56.8359 -53.9062 58.3496 -55.5176 58.3984 -57.373 C 58.3984 -59.2285 56.8359 -60.8398 54.9805 -60.8398 C 53.125 -60.8398 51.5137 -59.2285 51.5137 -57.373 Z" fill="#808080"/>
  </g>
  <g id="Thin-M" transform="matrix(1 0 0 1 799.806 1126)">
   <path d="M 56.6406 12.6953 C 82.9102 12.6953 104.492 -8.88672 104.492 -35.2051 C 104.492 -61.4746 82.9102 -83.0566 56.5918 -83.0566 C 30.3223 -83.0566 8.74023 -61.4746 8.74023 -35.2051 C 8.74023 -8.88672 30.3223 12.6953 56.6406 12.6953 Z M 47.2656 -55.4199 C 47.2656 -60.5957 51.4648 -64.7461 56.5918 -64.7461 C 61.7676 -64.7461 65.9668 -60.5957 65.9668 -55.4199 C 65.9668 -50.8301 62.6465 -47.0703 58.3008 -46.2891 L 58.3008 -13.1348 C 58.3008 -7.86133 57.5684 -4.83398 56.5918 -4.83398 C 55.6641 -4.83398 54.9316 -7.91016 54.9316 -13.1348 L 54.9316 -46.2891 C 50.5859 -47.0703 47.2656 -50.8301 47.2656 -55.4199 Z M 51.0254 -57.8613 C 51.0742 -56.1523 52.5391 -54.6875 54.1992 -54.6875 C 55.9082 -54.6875 57.2266 -56.1523 57.3242 -57.8613 C 57.373 -59.5703 55.9082 -61.0352 54.1992 -61.0352 C 52.5391 -61.0352 50.9766 -59.5703 51.0254 -57.8613 Z" fill="#808080"/>
  </g>
  <g id="Ultralight-M" transform="matrix(1 0 0 1 503.656 1126)">
   <path d="M 56.0547 12.1094 C 82.0801 12.1094 103.369 -9.17969 103.369 -35.2051 C 103.369 -61.2305 82.0801 -82.5195 56.0547 -82.5195 C 30.0293 -82.5195 8.74023 -61.2305 8.74023 -35.2051 C 8.74023 -9.17969 30.0293 12.1094 56.0547 12.1094 Z M 47.3145 -55.8105 C 47.3145 -60.6445 51.2207 -64.5508 56.0547 -64.5508 C 60.8887 -64.5508 64.7949 -60.6445 64.7949 -55.8105 C 64.7949 -51.3672 61.5234 -47.8027 57.2266 -47.168 L 57.2266 -11.7188 C 57.2266 -7.08008 56.5918 -5.12695 56.0547 -5.12695 C 55.5176 -5.12695 54.9316 -7.12891 54.9316 -11.7188 L 54.9316 -47.168 C 50.6348 -47.8027 47.3145 -51.3672 47.3145 -55.8105 Z M 50.7812 -58.1055 C 50.8789 -56.4941 52.1973 -55.127 53.8574 -55.127 C 55.4688 -55.127 56.6895 -56.4941 56.7383 -58.1055 C 56.8359 -59.7656 55.4688 -61.1328 53.8574 -61.1328 C 52.1973 -61.1328 50.7324 -59.7656 50.7812 -58.1055 Z" fill="#808080"/>
  </g>
  <g id="Black-S" transform="matrix(1 0 0 1 2884.57 696)">
   <path d="M 48.8281 6.83594 C 71.9727 6.83594 90.8203 -12.0117 90.8203 -35.1562 C 90.8203 -58.3008 71.9727 -77.1484 48.8281 -77.1484 C 25.6836 -77.1484 6.83594 -58.3008 6.83594 -35.1562 C 6.83594 -12.0117 25.6836 6.83594 48.8281 6.83594 Z M 37.4023 -47.1191 C 37.4023 -53.3691 42.4805 -58.4961 48.8281 -58.5449 C 55.127 -58.5938 60.2539 -53.5156 60.2539 -47.1191 C 60.2539 -42.4805 57.5195 -38.4277 53.5156 -36.6211 L 53.5156 -19.3359 C 53.5156 -16.0156 51.0742 -10.7422 48.8281 -10.7422 C 46.4844 -10.7422 44.0918 -16.0645 44.0918 -19.3359 L 44.0918 -36.6699 C 40.1367 -38.4766 37.4023 -42.4805 37.4023 -47.1191 Z M 41.9434 -49.9023 C 41.9434 -47.6562 43.7988 -45.752 46.0449 -45.752 C 48.291 -45.752 50.1953 -47.6562 50.1953 -49.9023 C 50.1953 -52.1973 48.291 -54.0527 46.0449 -54.0527 C 43.7988 -54.0527 41.9434 -52.1973 41.9434 -49.9023 Z" fill="#808080"/>
  </g>
  <g id="Heavy-S" transform="matrix(1 0 0 1 2588.47 696)">
   <path d="M 48.2422 6.20117 C 70.9961 6.20117 89.5996 -12.4023 89.5996 -35.1562 C 89.5996 -57.9102 70.9961 -76.5625 48.1934 -76.5625 C 25.4395 -76.5625 6.83594 -57.9102 6.83594 -35.1562 C 6.83594 -12.4023 25.4395 6.20117 48.2422 6.20117 Z M 37.2559 -47.7051 C 37.2559 -53.7109 42.1387 -58.6426 48.1934 -58.6914 C 54.248 -58.7402 59.1797 -53.8574 59.1797 -47.7051 C 59.1797 -43.2129 56.4453 -39.2578 52.5391 -37.5977 L 52.5391 -20.1172 C 52.5391 -16.1133 50.4395 -10.6934 48.1934 -10.6934 C 45.9473 -10.6934 43.8477 -16.1621 43.8477 -20.1172 L 43.8477 -37.6465 C 39.9902 -39.3066 37.2559 -43.2129 37.2559 -47.7051 Z M 41.6992 -50.4395 C 41.6992 -48.3398 43.4082 -46.5332 45.5078 -46.5332 C 47.6074 -46.5332 49.3652 -48.3398 49.3652 -50.4395 C 49.3652 -52.5391 47.6074 -54.2969 45.5078 -54.2969 C 43.4082 -54.2969 41.6992 -52.5391 41.6992 -50.4395 Z" fill="#808080"/>
  </g>
  <g id="Bold-S" transform="matrix(1 0 0 1 2292.44 696)">
   <path d="M 47.5586 5.51758 C 69.873 5.51758 88.2324 -12.8418 88.2324 -35.2051 C 88.2324 -57.5195 69.873 -75.8789 47.5098 -75.8789 C 25.1953 -75.8789 6.83594 -57.5195 6.83594 -35.2051 C 6.83594 -12.8418 25.1953 5.51758 47.5586 5.51758 Z M 37.0605 -48.3887 C 37.0605 -54.1504 41.748 -58.7891 47.5098 -58.8379 C 53.2715 -58.8379 57.959 -54.1992 57.959 -48.3887 C 57.959 -43.9941 55.2734 -40.2344 51.416 -38.7207 L 51.416 -20.9961 C 51.416 -16.1621 49.707 -10.6445 47.5098 -10.6445 C 45.3125 -10.6445 43.5547 -16.2598 43.5547 -20.9961 L 43.5547 -38.7207 C 39.7949 -40.2832 37.0605 -43.9941 37.0605 -48.3887 Z M 41.3574 -51.0254 C 41.3574 -49.0723 43.0176 -47.4121 44.9219 -47.4121 C 46.8262 -47.4121 48.4863 -49.0723 48.4863 -51.0254 C 48.4863 -52.9297 46.8262 -54.5898 44.9219 -54.5898 C 43.0176 -54.5898 41.3574 -52.9297 41.3574 -51.0254 Z" fill="#808080"/>
  </g>
  <g id="Semibold-S" transform="matrix(1 0 0 1 1996.2 696)">
   <path d="M 47.0703 5.0293 C 69.0918 5.0293 87.3047 -13.1348 87.3047 -35.2051 C 87.3047 -57.2266 69.0918 -75.4395 47.0215 -75.4395 C 25 -75.4395 6.83594 -57.2266 6.83594 -35.2051 C 6.83594 -13.1348 25.0488 5.0293 47.0703 5.0293 Z M 36.9629 -48.877 C 36.9629 -54.3945 41.5039 -58.9355 47.0215 -58.9355 C 52.5879 -58.9355 57.1289 -54.4434 57.1289 -48.877 C 57.1289 -44.5312 54.4434 -40.8691 50.6348 -39.4531 L 50.6348 -21.6309 C 50.6348 -16.2109 49.1699 -10.5957 47.0215 -10.5957 C 44.873 -10.5957 43.4082 -16.3086 43.4082 -21.6309 L 43.4082 -39.4531 C 39.6484 -40.918 36.9629 -44.5801 36.9629 -48.877 Z M 41.1621 -51.416 C 41.1621 -49.6094 42.7246 -48.0469 44.4824 -48.0469 C 46.3379 -48.0469 47.8516 -49.6094 47.8516 -51.416 C 47.8516 -53.2227 46.3379 -54.7852 44.4824 -54.7852 C 42.7246 -54.7852 41.1621 -53.2227 41.1621 -51.416 Z" fill="#808080"/>
  </g>
  <g id="Medium-S" transform="matrix(1 0 0 1 1699.83 696)">
   <path d="M 46.7285 4.6875 C 68.5547 4.6875 86.6211 -13.3789 86.6211 -35.2051 C 86.6211 -57.0312 68.5059 -75.0977 46.6797 -75.0977 C 24.8535 -75.0977 6.83594 -57.0312 6.83594 -35.2051 C 6.83594 -13.3789 24.9023 4.6875 46.7285 4.6875 Z M 36.8652 -49.2188 C 36.8652 -54.6387 41.2598 -59.0332 46.6797 -59.0332 C 52.0996 -59.0332 56.4941 -54.6387 56.4941 -49.2188 C 56.4941 -44.9707 53.8086 -41.3574 50.0488 -40.0391 L 50.0488 -22.0703 C 50.0488 -16.2598 48.8281 -10.5469 46.6797 -10.5469 C 44.5312 -10.5469 43.2617 -16.3574 43.2617 -22.0703 L 43.2617 -40.0391 C 39.5508 -41.4062 36.8652 -44.9707 36.8652 -49.2188 Z M 41.0156 -51.709 C 41.0156 -50 42.4805 -48.4863 44.1895 -48.4863 C 45.8984 -48.4863 47.3633 -50 47.3633 -51.709 C 47.3633 -53.418 45.8984 -54.9316 44.1895 -54.9316 C 42.4805 -54.9316 41.0156 -53.418 41.0156 -51.709 Z" fill="#808080"/>
  </g>
  <g id="Regular-S" transform="matrix(1 0 0 1 1403.58 696)">
   <path d="M 46.2402 4.19922 C 67.7734 4.19922 85.6934 -13.6719 85.6934 -35.2051 C 85.6934 -56.7383 67.7246 -74.6094 46.1914 -74.6094 C 24.707 -74.6094 6.83594 -56.7383 6.83594 -35.2051 C 6.83594 -13.6719 24.7559 4.19922 46.2402 4.19922 Z M 36.7188 -49.707 C 36.7188 -54.8828 41.0156 -59.1309 46.1914 -59.1309 C 51.416 -59.1309 55.6641 -54.8828 55.6641 -49.707 C 55.6641 -45.5078 53.0273 -41.9922 49.3164 -40.7715 L 49.3164 -22.6562 C 49.3164 -16.3086 48.3398 -10.498 46.1914 -10.498 C 44.0918 -10.498 43.0664 -16.4062 43.0664 -22.6562 L 43.0664 -40.7715 C 39.4043 -42.041 36.7188 -45.5566 36.7188 -49.707 Z M 40.8203 -52.0996 C 40.8203 -50.5371 42.2363 -49.1211 43.75 -49.1211 C 45.4102 -49.1211 46.7285 -50.5371 46.7285 -52.0996 C 46.7285 -53.7109 45.4102 -55.0781 43.75 -55.0781 C 42.2363 -55.0781 40.8203 -53.7109 40.8203 -52.0996 Z" fill="#808080"/>
  </g>
  <g id="Light-S" transform="matrix(1 0 0 1 1107.6 696)">
   <path d="M 45.5078 3.4668 C 66.6992 3.4668 84.2285 -14.0137 84.2285 -35.2051 C 84.2285 -56.3965 66.6504 -73.877 45.5078 -73.877 C 24.3164 -73.877 6.83594 -56.3965 6.83594 -35.2051 C 6.83594 -14.0137 24.3652 3.4668 45.5078 3.4668 Z M 36.8164 -50.1953 C 36.8164 -54.9805 40.7227 -58.8379 45.5078 -58.8379 C 50.2441 -58.8379 54.1504 -54.9805 54.1504 -50.1953 C 54.1504 -46.2402 51.5137 -42.9688 47.9004 -41.9922 L 47.9004 -20.8496 C 47.9004 -15.332 47.0703 -10.8398 45.5078 -10.8398 C 43.8965 -10.8398 43.0664 -15.4297 43.0664 -20.8496 L 43.0664 -41.9922 C 39.502 -43.0176 36.8164 -46.2891 36.8164 -50.1953 Z M 40.4785 -52.4414 C 40.5273 -50.9277 41.7969 -49.6582 43.2617 -49.6582 C 44.7754 -49.6582 45.9961 -50.9277 46.0449 -52.4414 C 46.0449 -53.9551 44.7754 -55.2246 43.2617 -55.2246 C 41.7969 -55.2246 40.4785 -53.9551 40.4785 -52.4414 Z" fill="#808080"/>
  </g>
  <g id="Thin-S" transform="matrix(1 0 0 1 811.867 696)">
   <path d="M 44.5801 2.53906 C 65.2832 2.53906 82.2754 -14.502 82.2754 -35.2051 C 82.2754 -55.9082 65.2344 -72.9492 44.5312 -72.9492 C 23.8281 -72.9492 6.83594 -55.9082 6.83594 -35.2051 C 6.83594 -14.502 23.877 2.53906 44.5801 2.53906 Z M 36.9629 -50.8789 C 36.9629 -55.0781 40.3809 -58.4473 44.5312 -58.4473 C 48.7305 -58.4473 52.0996 -55.0781 52.0996 -50.8789 C 52.0996 -47.2168 49.5117 -44.2383 46.0449 -43.5547 L 46.0449 -18.4082 C 46.0449 -14.0625 45.4102 -11.3281 44.5312 -11.3281 C 43.6523 -11.3281 43.0176 -14.1113 43.0176 -18.4082 L 43.0176 -43.5547 C 39.5996 -44.2383 36.9629 -47.2168 36.9629 -50.8789 Z M 40.0879 -52.832 C 40.0879 -51.5137 41.2598 -50.3418 42.627 -50.3418 C 43.9941 -50.3418 45.0684 -51.5137 45.0684 -52.832 C 45.1172 -54.248 43.9941 -55.4199 42.627 -55.4199 C 41.2598 -55.4199 40.0391 -54.248 40.0879 -52.832 Z" fill="#808080"/>
  </g>
  <g id="Ultralight-S" transform="matrix(1 0 0 1 515.644 696)">
   <path d="M 44.043 2.00195 C 64.502 2.00195 81.2988 -14.7461 81.2988 -35.2051 C 81.2988 -55.6641 64.502 -72.4121 44.043 -72.4121 C 23.584 -72.4121 6.83594 -55.6641 6.83594 -35.2051 C 6.83594 -14.7461 23.584 2.00195 44.043 2.00195 Z M 37.0605 -51.2207 C 37.0605 -55.127 40.1855 -58.252 44.043 -58.252 C 47.9492 -58.252 51.0742 -55.127 51.0742 -51.2207 C 51.0742 -47.7539 48.4863 -44.873 45.0684 -44.3359 L 45.0684 -17.1875 C 45.0684 -13.3789 44.5801 -11.5723 44.043 -11.5723 C 43.5547 -11.5723 43.0176 -13.4277 43.0176 -17.1875 L 43.0176 -44.3359 C 39.6484 -44.873 37.0605 -47.7539 37.0605 -51.2207 Z M 39.8438 -53.0762 C 39.8926 -51.8066 40.9668 -50.6836 42.2852 -50.6836 C 43.5547 -50.6836 44.5312 -51.8066 44.5801 -53.0762 C 44.6289 -54.3945 43.5547 -55.5176 42.2852 -55.5176 C 40.9668 -55.5176 39.7949 -54.3945 39.8438 -53.0762 Z" fill="#808080"/>
  </g>
 </g>
</svg>
